# xmcd
#
# Track frame offsets:
#	150
#	13026
#	27165
#	43274
#	58990
#	74086
#	90433
#	107601
#	126003
#	144527
#
# Disc length: 2217 seconds
#
# Revision: 1
# Processed by: cddbd v1.5.2PL0 Copyright (c) Steve Scherf et al.
# Submitted via: audiograbber 1.83.01
#
DISCID=8d08a70a
DTITLE=Poor Old Shine - Poor Old Shine
DYEAR=2013
DGENRE=Grassroots/Country
TTITLE0=Weeds Or Wildflowers
TTITLE1=Footsteps In My Ear
TTITLE2=Country Pocket
TTITLE3=Ghosts Next Door
TTITLE4=Punching The Air
TTITLE5=Right Now
TTITLE6=Empty Rocking Chair
TTITLE7=The Hurry All Around
TTITLE8=Love Song
TTITLE9=Tear Down The Stage
EXTD=
EXTT0=
EXTT1=
EXTT2=
EXTT3=
EXTT4=
EXTT5=
EXTT6=
EXTT7=
EXTT8=
EXTT9=
PLAYORDER=
